<mxfile host="app.diagrams.net" modified="2023-04-26T17:29:41.905Z" agent="Mozilla/5.0 (Windows NT 10.0; Win64; x64) AppleWebKit/537.36 (KHTML, like Gecko) Chrome/112.0.0.0 Safari/537.36" etag="UiBHMgS4ShZLZhxhNz-r" version="21.2.2">
  <diagram name="Side-1" id="5u-5aqDInmCm3SBkzAMp">
    <mxGraphModel dx="1687" dy="915" grid="1" gridSize="10" guides="1" tooltips="1" connect="1" arrows="1" fold="1" page="1" pageScale="1" pageWidth="827" pageHeight="1169" math="0" shadow="0">
      <root>
        <mxCell id="0" />
        <mxCell id="1" parent="0" />
        <mxCell id="6XV5QWKAaU5ncUlAv5Sg-18" value="" style="rounded=1;whiteSpace=wrap;html=1;fillColor=#647687;fontColor=#ffffff;strokeColor=#314354;" vertex="1" parent="1">
          <mxGeometry x="105" y="45" width="90" height="20" as="geometry" />
        </mxCell>
        <mxCell id="6XV5QWKAaU5ncUlAv5Sg-1" value="" style="rounded=0;whiteSpace=wrap;html=1;fillColor=#f5f5f5;fontColor=#333333;strokeColor=#666666;" vertex="1" parent="1">
          <mxGeometry x="100" y="70" width="210" height="360" as="geometry" />
        </mxCell>
        <mxCell id="6XV5QWKAaU5ncUlAv5Sg-2" value="Login screen" style="text;html=1;strokeColor=none;fillColor=none;align=center;verticalAlign=middle;whiteSpace=wrap;rounded=0;fontStyle=1;fontColor=#FFFFFF;" vertex="1" parent="1">
          <mxGeometry x="100" y="40" width="100" height="30" as="geometry" />
        </mxCell>
        <mxCell id="6XV5QWKAaU5ncUlAv5Sg-8" value="&lt;b style=&quot;font-size: 19px;&quot;&gt;Login&lt;/b&gt;" style="text;html=1;strokeColor=none;fillColor=none;align=center;verticalAlign=middle;whiteSpace=wrap;rounded=0;fontSize=19;" vertex="1" parent="1">
          <mxGeometry x="130" y="150" width="60" height="30" as="geometry" />
        </mxCell>
        <mxCell id="6XV5QWKAaU5ncUlAv5Sg-9" value="" style="rounded=1;whiteSpace=wrap;html=1;" vertex="1" parent="1">
          <mxGeometry x="123.5" y="230" width="163" height="20" as="geometry" />
        </mxCell>
        <mxCell id="6XV5QWKAaU5ncUlAv5Sg-6" value="Email or username" style="text;html=1;strokeColor=none;fillColor=none;align=center;verticalAlign=middle;whiteSpace=wrap;rounded=0;" vertex="1" parent="1">
          <mxGeometry x="110" y="225" width="140" height="30" as="geometry" />
        </mxCell>
        <mxCell id="6XV5QWKAaU5ncUlAv5Sg-10" value="" style="rounded=1;whiteSpace=wrap;html=1;" vertex="1" parent="1">
          <mxGeometry x="123.5" y="260" width="163" height="20" as="geometry" />
        </mxCell>
        <mxCell id="6XV5QWKAaU5ncUlAv5Sg-7" value="Password" style="text;html=1;strokeColor=none;fillColor=none;align=center;verticalAlign=middle;whiteSpace=wrap;rounded=0;" vertex="1" parent="1">
          <mxGeometry x="126.5" y="255" width="60" height="30" as="geometry" />
        </mxCell>
        <mxCell id="6XV5QWKAaU5ncUlAv5Sg-11" value="" style="rounded=1;whiteSpace=wrap;html=1;fillColor=#f8cecc;strokeColor=#b85450;" vertex="1" parent="1">
          <mxGeometry x="170" y="325" width="70" height="20" as="geometry" />
        </mxCell>
        <mxCell id="6XV5QWKAaU5ncUlAv5Sg-12" value="Login" style="text;html=1;strokeColor=none;fillColor=none;align=center;verticalAlign=middle;whiteSpace=wrap;rounded=0;" vertex="1" parent="1">
          <mxGeometry x="175" y="320" width="60" height="30" as="geometry" />
        </mxCell>
        <mxCell id="6XV5QWKAaU5ncUlAv5Sg-13" value="" style="rounded=0;whiteSpace=wrap;html=1;fontSize=8;" vertex="1" parent="1">
          <mxGeometry x="130" y="287.5" width="7" height="10" as="geometry" />
        </mxCell>
        <mxCell id="6XV5QWKAaU5ncUlAv5Sg-14" value="Remember" style="text;html=1;strokeColor=none;fillColor=none;align=center;verticalAlign=middle;whiteSpace=wrap;rounded=0;fontSize=11;" vertex="1" parent="1">
          <mxGeometry x="140" y="277.5" width="60" height="30" as="geometry" />
        </mxCell>
        <mxCell id="6XV5QWKAaU5ncUlAv5Sg-15" value="" style="rounded=1;whiteSpace=wrap;html=1;fillColor=#647687;strokeColor=#314354;fontColor=#ffffff;" vertex="1" parent="1">
          <mxGeometry x="142.5" y="390" width="125" height="20" as="geometry" />
        </mxCell>
        <mxCell id="6XV5QWKAaU5ncUlAv5Sg-16" value="Create new account" style="text;html=1;strokeColor=none;fillColor=none;align=center;verticalAlign=middle;whiteSpace=wrap;rounded=0;" vertex="1" parent="1">
          <mxGeometry x="145" y="385" width="120" height="30" as="geometry" />
        </mxCell>
        <mxCell id="6XV5QWKAaU5ncUlAv5Sg-19" value="" style="rounded=1;whiteSpace=wrap;html=1;fillColor=#647687;fontColor=#ffffff;strokeColor=#314354;" vertex="1" parent="1">
          <mxGeometry x="420" y="45" width="90" height="20" as="geometry" />
        </mxCell>
        <mxCell id="6XV5QWKAaU5ncUlAv5Sg-21" value="Main page" style="text;html=1;strokeColor=none;fillColor=none;align=center;verticalAlign=middle;whiteSpace=wrap;rounded=0;fontStyle=1;fontColor=#ffffff;" vertex="1" parent="1">
          <mxGeometry x="420" y="40" width="70" height="30" as="geometry" />
        </mxCell>
        <mxCell id="6XV5QWKAaU5ncUlAv5Sg-22" value="" style="rounded=0;whiteSpace=wrap;html=1;fillColor=#f5f5f5;fontColor=#333333;strokeColor=#666666;" vertex="1" parent="1">
          <mxGeometry x="414" y="70" width="210" height="360" as="geometry" />
        </mxCell>
        <mxCell id="6XV5QWKAaU5ncUlAv5Sg-23" value="" style="rounded=1;whiteSpace=wrap;html=1;rotation=0;" vertex="1" parent="1">
          <mxGeometry x="420" y="100" width="200" height="270" as="geometry" />
        </mxCell>
        <mxCell id="6XV5QWKAaU5ncUlAv5Sg-24" value="&lt;b style=&quot;font-size: 14px;&quot;&gt;&lt;font style=&quot;font-size: 14px;&quot;&gt;Movie name&lt;/font&gt;&lt;/b&gt;" style="text;html=1;strokeColor=none;fillColor=none;align=center;verticalAlign=middle;whiteSpace=wrap;rounded=0;fontSize=14;" vertex="1" parent="1">
          <mxGeometry x="422" y="318.25" width="105" height="30" as="geometry" />
        </mxCell>
        <mxCell id="6XV5QWKAaU5ncUlAv5Sg-25" value="Movie genres, action, fantasy" style="text;html=1;strokeColor=none;fillColor=none;align=center;verticalAlign=middle;whiteSpace=wrap;rounded=0;fontSize=10;" vertex="1" parent="1">
          <mxGeometry x="420" y="335.75" width="160" height="30" as="geometry" />
        </mxCell>
        <mxCell id="6XV5QWKAaU5ncUlAv5Sg-27" value="" style="endArrow=none;html=1;rounded=0;" edge="1" parent="1">
          <mxGeometry width="50" height="50" relative="1" as="geometry">
            <mxPoint x="422" y="80" as="sourcePoint" />
            <mxPoint x="442" y="80" as="targetPoint" />
          </mxGeometry>
        </mxCell>
        <mxCell id="6XV5QWKAaU5ncUlAv5Sg-28" value="" style="endArrow=none;html=1;rounded=0;" edge="1" parent="1">
          <mxGeometry width="50" height="50" relative="1" as="geometry">
            <mxPoint x="422" y="84.9" as="sourcePoint" />
            <mxPoint x="442" y="84.9" as="targetPoint" />
          </mxGeometry>
        </mxCell>
        <mxCell id="6XV5QWKAaU5ncUlAv5Sg-29" value="" style="endArrow=none;html=1;rounded=0;" edge="1" parent="1">
          <mxGeometry width="50" height="50" relative="1" as="geometry">
            <mxPoint x="422" y="89.81" as="sourcePoint" />
            <mxPoint x="442" y="89.81" as="targetPoint" />
          </mxGeometry>
        </mxCell>
        <mxCell id="6XV5QWKAaU5ncUlAv5Sg-33" value="" style="shape=image;html=1;verticalLabelPosition=bottom;verticalAlign=top;imageAspect=0;image=img/clipart/Gear_128x128.png" vertex="1" parent="1">
          <mxGeometry x="596" y="75" width="20" height="20" as="geometry" />
        </mxCell>
        <mxCell id="6XV5QWKAaU5ncUlAv5Sg-37" value="i" style="ellipse;whiteSpace=wrap;html=1;aspect=fixed;" vertex="1" parent="1">
          <mxGeometry x="596" y="335.75" width="15" height="15" as="geometry" />
        </mxCell>
        <mxCell id="6XV5QWKAaU5ncUlAv5Sg-38" value="X" style="ellipse;whiteSpace=wrap;html=1;aspect=fixed;" vertex="1" parent="1">
          <mxGeometry x="470" y="380" width="30" height="30" as="geometry" />
        </mxCell>
        <mxCell id="6XV5QWKAaU5ncUlAv5Sg-39" value="/" style="ellipse;whiteSpace=wrap;html=1;aspect=fixed;" vertex="1" parent="1">
          <mxGeometry x="550" y="380" width="30" height="30" as="geometry" />
        </mxCell>
        <mxCell id="6XV5QWKAaU5ncUlAv5Sg-40" value="" style="edgeStyle=elbowEdgeStyle;elbow=horizontal;endArrow=classic;html=1;curved=0;rounded=0;endSize=8;startSize=8;exitX=0.005;exitY=0.048;exitDx=0;exitDy=0;exitPerimeter=0;fillColor=#b1ddf0;strokeColor=#10739e;" edge="1" parent="1" source="6XV5QWKAaU5ncUlAv5Sg-22">
          <mxGeometry width="50" height="50" relative="1" as="geometry">
            <mxPoint x="330" y="540" as="sourcePoint" />
            <mxPoint x="310" y="560" as="targetPoint" />
          </mxGeometry>
        </mxCell>
        <mxCell id="6XV5QWKAaU5ncUlAv5Sg-41" value="" style="endArrow=classic;html=1;rounded=0;exitX=1;exitY=0.5;exitDx=0;exitDy=0;entryX=0;entryY=0.5;entryDx=0;entryDy=0;" edge="1" parent="1" source="6XV5QWKAaU5ncUlAv5Sg-1" target="6XV5QWKAaU5ncUlAv5Sg-22">
          <mxGeometry width="50" height="50" relative="1" as="geometry">
            <mxPoint x="250" y="400" as="sourcePoint" />
            <mxPoint x="300" y="350" as="targetPoint" />
          </mxGeometry>
        </mxCell>
        <mxCell id="6XV5QWKAaU5ncUlAv5Sg-42" value="Group menu" style="text;html=1;strokeColor=none;fillColor=none;align=center;verticalAlign=middle;whiteSpace=wrap;rounded=0;" vertex="1" parent="1">
          <mxGeometry x="338" y="65" width="82" height="30" as="geometry" />
        </mxCell>
        <mxCell id="6XV5QWKAaU5ncUlAv5Sg-43" value="" style="rounded=0;whiteSpace=wrap;html=1;fillColor=#f5f5f5;fontColor=#333333;strokeColor=#666666;" vertex="1" parent="1">
          <mxGeometry x="100" y="500" width="210" height="360" as="geometry" />
        </mxCell>
        <mxCell id="6XV5QWKAaU5ncUlAv5Sg-45" value="" style="rounded=1;whiteSpace=wrap;html=1;fillColor=#647687;fontColor=#ffffff;strokeColor=#314354;" vertex="1" parent="1">
          <mxGeometry x="100" y="475" width="90" height="20" as="geometry" />
        </mxCell>
        <mxCell id="6XV5QWKAaU5ncUlAv5Sg-46" value="Group menu" style="text;html=1;strokeColor=none;fillColor=none;align=center;verticalAlign=middle;whiteSpace=wrap;rounded=0;fontStyle=1;fontColor=#FFFFFF;" vertex="1" parent="1">
          <mxGeometry x="95" y="470" width="100" height="30" as="geometry" />
        </mxCell>
        <mxCell id="6XV5QWKAaU5ncUlAv5Sg-47" value="" style="rounded=0;whiteSpace=wrap;html=1;fillColor=#bac8d3;strokeColor=#23445d;" vertex="1" parent="1">
          <mxGeometry x="100" y="500" width="200" height="360" as="geometry" />
        </mxCell>
        <mxCell id="6XV5QWKAaU5ncUlAv5Sg-48" value="X" style="rounded=0;whiteSpace=wrap;html=1;" vertex="1" parent="1">
          <mxGeometry x="280" y="500" width="19.5" height="20" as="geometry" />
        </mxCell>
        <mxCell id="6XV5QWKAaU5ncUlAv5Sg-50" value="Groups" style="text;html=1;strokeColor=none;fillColor=none;align=center;verticalAlign=middle;whiteSpace=wrap;rounded=0;" vertex="1" parent="1">
          <mxGeometry x="100" y="500" width="60" height="30" as="geometry" />
        </mxCell>
        <mxCell id="6XV5QWKAaU5ncUlAv5Sg-51" value="" style="endArrow=none;html=1;rounded=0;" edge="1" parent="1">
          <mxGeometry width="50" height="50" relative="1" as="geometry">
            <mxPoint x="100" y="530" as="sourcePoint" />
            <mxPoint x="100" y="530" as="targetPoint" />
            <Array as="points">
              <mxPoint x="260" y="530" />
            </Array>
          </mxGeometry>
        </mxCell>
        <mxCell id="6XV5QWKAaU5ncUlAv5Sg-59" value="" style="group" vertex="1" connectable="0" parent="1">
          <mxGeometry x="100" y="540" width="200" height="150" as="geometry" />
        </mxCell>
        <mxCell id="6XV5QWKAaU5ncUlAv5Sg-49" value="" style="rounded=1;whiteSpace=wrap;html=1;" vertex="1" parent="6XV5QWKAaU5ncUlAv5Sg-59">
          <mxGeometry width="200" height="110" as="geometry" />
        </mxCell>
        <mxCell id="6XV5QWKAaU5ncUlAv5Sg-52" value="Group 1" style="text;html=1;strokeColor=none;fillColor=none;align=center;verticalAlign=middle;whiteSpace=wrap;rounded=0;" vertex="1" parent="6XV5QWKAaU5ncUlAv5Sg-59">
          <mxGeometry width="60" height="43.333333333333336" as="geometry" />
        </mxCell>
        <mxCell id="6XV5QWKAaU5ncUlAv5Sg-54" value="Selected" style="text;html=1;strokeColor=none;fillColor=none;align=center;verticalAlign=middle;whiteSpace=wrap;rounded=0;" vertex="1" parent="6XV5QWKAaU5ncUlAv5Sg-59">
          <mxGeometry x="140" width="60" height="43.333333333333336" as="geometry" />
        </mxCell>
        <mxCell id="6XV5QWKAaU5ncUlAv5Sg-56" value="" style="endArrow=none;html=1;rounded=0;" edge="1" parent="6XV5QWKAaU5ncUlAv5Sg-59">
          <mxGeometry width="50" height="50" relative="1" as="geometry">
            <mxPoint x="-0.5" y="43.333333333333336" as="sourcePoint" />
            <mxPoint x="-0.5" y="43.333333333333336" as="targetPoint" />
            <Array as="points">
              <mxPoint x="200" y="43.333333333333336" />
            </Array>
          </mxGeometry>
        </mxCell>
        <mxCell id="6XV5QWKAaU5ncUlAv5Sg-64" value="Group members" style="text;html=1;strokeColor=none;fillColor=none;align=center;verticalAlign=middle;whiteSpace=wrap;rounded=0;" vertex="1" parent="6XV5QWKAaU5ncUlAv5Sg-59">
          <mxGeometry y="44.5" width="100" height="30" as="geometry" />
        </mxCell>
        <mxCell id="6XV5QWKAaU5ncUlAv5Sg-63" value="Matched movies" style="text;html=1;strokeColor=none;fillColor=none;align=center;verticalAlign=middle;whiteSpace=wrap;rounded=0;" vertex="1" parent="6XV5QWKAaU5ncUlAv5Sg-59">
          <mxGeometry y="74.5" width="100" height="30" as="geometry" />
        </mxCell>
        <mxCell id="6XV5QWKAaU5ncUlAv5Sg-58" value="" style="group" vertex="1" connectable="0" parent="6XV5QWKAaU5ncUlAv5Sg-59">
          <mxGeometry y="120" width="200" height="30" as="geometry" />
        </mxCell>
        <mxCell id="6XV5QWKAaU5ncUlAv5Sg-53" value="" style="rounded=1;whiteSpace=wrap;html=1;" vertex="1" parent="6XV5QWKAaU5ncUlAv5Sg-58">
          <mxGeometry y="-10" width="200" height="30" as="geometry" />
        </mxCell>
        <mxCell id="6XV5QWKAaU5ncUlAv5Sg-55" value="Group 2" style="text;html=1;strokeColor=none;fillColor=none;align=center;verticalAlign=middle;whiteSpace=wrap;rounded=0;" vertex="1" parent="6XV5QWKAaU5ncUlAv5Sg-58">
          <mxGeometry x="0.5" y="-10" width="60" height="30" as="geometry" />
        </mxCell>
        <mxCell id="6XV5QWKAaU5ncUlAv5Sg-57" value="Select" style="text;html=1;strokeColor=none;fillColor=none;align=center;verticalAlign=middle;whiteSpace=wrap;rounded=0;" vertex="1" parent="6XV5QWKAaU5ncUlAv5Sg-58">
          <mxGeometry x="135.5" y="-10" width="60" height="30" as="geometry" />
        </mxCell>
        <mxCell id="6XV5QWKAaU5ncUlAv5Sg-90" value="" style="rounded=1;whiteSpace=wrap;html=1;" vertex="1" parent="1">
          <mxGeometry x="100" y="680" width="200" height="30" as="geometry" />
        </mxCell>
        <mxCell id="6XV5QWKAaU5ncUlAv5Sg-91" value="Group 3" style="text;html=1;strokeColor=none;fillColor=none;align=center;verticalAlign=middle;whiteSpace=wrap;rounded=0;" vertex="1" parent="1">
          <mxGeometry x="100.5" y="680" width="60" height="30" as="geometry" />
        </mxCell>
        <mxCell id="6XV5QWKAaU5ncUlAv5Sg-92" value="Select" style="text;html=1;strokeColor=none;fillColor=none;align=center;verticalAlign=middle;whiteSpace=wrap;rounded=0;" vertex="1" parent="1">
          <mxGeometry x="235.5" y="680" width="60" height="30" as="geometry" />
        </mxCell>
        <mxCell id="6XV5QWKAaU5ncUlAv5Sg-106" value="" style="group" vertex="1" connectable="0" parent="1">
          <mxGeometry x="100" y="710" width="200" height="30" as="geometry" />
        </mxCell>
        <mxCell id="6XV5QWKAaU5ncUlAv5Sg-102" value="" style="rounded=1;whiteSpace=wrap;html=1;" vertex="1" parent="6XV5QWKAaU5ncUlAv5Sg-106">
          <mxGeometry width="200" height="30" as="geometry" />
        </mxCell>
        <mxCell id="6XV5QWKAaU5ncUlAv5Sg-103" value="Group 4" style="text;html=1;strokeColor=none;fillColor=none;align=center;verticalAlign=middle;whiteSpace=wrap;rounded=0;" vertex="1" parent="6XV5QWKAaU5ncUlAv5Sg-106">
          <mxGeometry x="0.5" width="60" height="30" as="geometry" />
        </mxCell>
        <mxCell id="6XV5QWKAaU5ncUlAv5Sg-104" value="Select" style="text;html=1;strokeColor=none;fillColor=none;align=center;verticalAlign=middle;whiteSpace=wrap;rounded=0;" vertex="1" parent="6XV5QWKAaU5ncUlAv5Sg-106">
          <mxGeometry x="135.5" width="60" height="30" as="geometry" />
        </mxCell>
        <mxCell id="6XV5QWKAaU5ncUlAv5Sg-107" value="New group" style="rounded=1;whiteSpace=wrap;html=1;" vertex="1" parent="1">
          <mxGeometry x="160.5" y="830" width="80" height="20" as="geometry" />
        </mxCell>
      </root>
    </mxGraphModel>
  </diagram>
</mxfile>
